<mxfile host="app.diagrams.net" modified="2023-07-16T13:57:48.240Z" agent="Mozilla/5.0 (Windows NT 10.0; Win64; x64) AppleWebKit/537.36 (KHTML, like Gecko) Chrome/114.0.0.0 Safari/537.36" etag="AjgPy-4qf8DbOKpVlclT" version="21.6.2" type="github">
  <diagram name="PÃ¡gina-1" id="QpeZX3x1d2U2MpSwaCdZ">
    <mxGraphModel dx="1050" dy="581" grid="1" gridSize="10" guides="1" tooltips="1" connect="1" arrows="1" fold="1" page="1" pageScale="1" pageWidth="827" pageHeight="1169" math="0" shadow="0">
      <root>
        <mxCell id="0" />
        <mxCell id="1" parent="0" />
        <mxCell id="_hgtX78mSgX3vMqoAABh-1" value="Dependency Injection&lt;br&gt;- Services to access DB" style="rounded=1;whiteSpace=wrap;html=1;" vertex="1" parent="1">
          <mxGeometry x="120" y="180" width="120" height="60" as="geometry" />
        </mxCell>
      </root>
    </mxGraphModel>
  </diagram>
</mxfile>
